<svg width="59" height="27" viewBox="0 0 59 27" fill="none" xmlns="http://www.w3.org/2000/svg">
<path d="M15.072 22.096C14.064 22.096 13.152 21.888 12.336 21.472C11.52 21.04 10.856 20.208 10.344 18.976L9.792 17.632H3.408L1.44 22H0.192L7.272 6.16H8.352L13.728 18.976C14.336 20.464 15.168 21.264 16.224 21.376V21.976C15.936 22.056 15.552 22.096 15.072 22.096ZM3.912 16.552H9.336L6.696 10.288L3.912 16.552Z" fill="currentColor"/>
<line x1="14" y1="21.5" x2="59" y2="21.5" stroke="currentColor"/>
<path d="M17.184 20.16C16.32 20.16 15.648 19.968 15.168 19.584C14.6987 19.1893 14.464 18.6613 14.464 18C14.464 17.4667 14.5867 17.024 14.832 16.672C15.088 16.32 15.5307 16.0533 16.16 15.872C16.7893 15.6907 17.664 15.6 18.784 15.6H19.024C19.024 14.672 18.896 14.016 18.64 13.632C18.384 13.2373 18.0053 13.04 17.504 13.04C17.088 13.04 16.7467 13.1413 16.48 13.344C16.2133 13.5467 16.0213 13.9253 15.904 14.48H15.024C15.024 14.1173 15.0453 13.808 15.088 13.552C15.1413 13.296 15.2533 13.072 15.424 12.88C15.7547 12.5067 16.5547 12.32 17.824 12.32C18.8907 12.32 19.7013 12.6027 20.256 13.168C20.8213 13.7227 21.104 14.56 21.104 15.68V20H19.744L19.184 19.28H19.104C19.008 19.4293 18.8587 19.5787 18.656 19.728C18.2933 20.016 17.8027 20.16 17.184 20.16ZM17.664 19.36C17.888 19.36 18.08 19.3173 18.24 19.232C18.4 19.136 18.5547 19.008 18.704 18.848C18.8427 18.6987 18.9493 18.5227 19.024 18.32V16.32H18.784C18.0267 16.32 17.4773 16.4587 17.136 16.736C16.7947 17.0027 16.624 17.424 16.624 18C16.624 18.4373 16.7147 18.7733 16.896 19.008C17.0773 19.2427 17.3333 19.36 17.664 19.36ZM28.0335 12.64C28.2255 12.7787 28.3642 12.9333 28.4495 13.104C28.5348 13.264 28.5775 13.3493 28.5775 13.36L27.7615 13.984C27.6868 13.888 27.5908 13.7867 27.4735 13.68C27.2388 13.4667 26.9668 13.36 26.6575 13.36C26.0388 13.36 25.5642 13.5253 25.2335 13.856L25.2655 14.096C25.2868 14.288 25.2975 14.464 25.2975 14.624V20H23.2175V14.56C23.2175 14.016 23.1428 13.616 22.9935 13.36C22.8548 13.0933 22.5615 12.96 22.1135 12.96H21.9535V12.48H23.5375C23.9002 12.48 24.1828 12.528 24.3855 12.624C24.5988 12.7093 24.7642 12.8587 24.8815 13.072C25.4575 12.5707 26.1295 12.32 26.8975 12.32C27.3562 12.32 27.7348 12.4267 28.0335 12.64ZM32.9004 20.16C32.1217 20.16 31.439 19.9893 30.8524 19.648C30.2764 19.296 29.8337 18.8267 29.5244 18.24C29.215 17.6427 29.0604 16.976 29.0604 16.24C29.0604 15.504 29.215 14.8427 29.5244 14.256C29.8337 13.6587 30.2764 13.1893 30.8524 12.848C31.439 12.496 32.1217 12.32 32.9004 12.32C33.679 12.32 34.3564 12.496 34.9324 12.848C35.519 13.1893 35.967 13.6587 36.2764 14.256C36.5857 14.8427 36.7404 15.504 36.7404 16.24C36.7404 16.976 36.5857 17.6427 36.2764 18.24C35.967 18.8267 35.519 19.296 34.9324 19.648C34.3564 19.9893 33.679 20.16 32.9004 20.16ZM32.9004 19.44C33.4444 19.44 33.8604 19.1467 34.1484 18.56C34.4364 17.9733 34.5804 17.2 34.5804 16.24C34.5804 15.28 34.4364 14.5067 34.1484 13.92C33.8604 13.3333 33.4444 13.04 32.9004 13.04C32.3564 13.04 31.9404 13.3333 31.6524 13.92C31.3644 14.5067 31.2204 15.28 31.2204 16.24C31.2204 17.2 31.3644 17.9733 31.6524 18.56C31.9404 19.1467 32.3564 19.44 32.9004 19.44ZM38.5925 14.56C38.5925 14.016 38.5178 13.616 38.3685 13.36C38.2298 13.0933 37.9365 12.96 37.4885 12.96H37.3285V12.48H38.9125C39.2752 12.48 39.5578 12.528 39.7605 12.624C39.9738 12.7093 40.1392 12.8587 40.2565 13.072C40.8005 12.5707 41.5792 12.32 42.5925 12.32C43.6058 12.32 44.3632 12.56 44.8645 13.04C45.3765 13.5093 45.6325 14.2507 45.6325 15.264V20H43.5525V15.248C43.5525 14.512 43.4138 13.9733 43.1365 13.632C42.8698 13.2907 42.5018 13.12 42.0325 13.12C41.7018 13.12 41.4085 13.168 41.1525 13.264C40.9072 13.3493 40.7098 13.4667 40.5605 13.616L40.6085 13.84C40.6512 13.968 40.6725 14.176 40.6725 14.464V20H38.5925V14.56Z" fill="currentColor"/>
</svg>
