<svg width="33" height="32" viewBox="0 0 33 32" fill="currentColor"  xmlns="http://www.w3.org/2000/svg">
<g id="bx-moon.svg">
<path id="Vector" d="M28.1561 17.3933C27.2525 17.6333 26.3216 17.7548 25.3868 17.7547C22.5401 17.7547 19.8668 16.648 17.8588 14.64C16.5402 13.3138 15.5922 11.6652 15.1093 9.8584C14.6264 8.05164 14.6256 6.14988 15.1068 4.34267C15.1668 4.11672 15.1665 3.87893 15.1056 3.65317C15.0448 3.42741 14.9257 3.22161 14.7602 3.05641C14.5948 2.89122 14.3888 2.77244 14.1629 2.71199C13.9371 2.65154 13.6993 2.65155 13.4734 2.71201C11.211 3.31492 9.14684 4.50217 7.48809 6.15467C2.29075 11.352 2.29075 19.812 7.48809 25.012C8.72346 26.2543 10.1929 27.2392 11.8115 27.9098C13.43 28.5803 15.1655 28.9233 16.9174 28.9187C18.6689 28.9236 20.404 28.5809 22.0221 27.9106C23.6402 27.2402 25.1092 26.2555 26.3441 25.0133C27.9978 23.3543 29.1856 21.2891 29.7881 19.0253C29.8479 18.7995 29.8474 18.5619 29.7867 18.3363C29.7259 18.1106 29.6069 17.905 29.4417 17.7397C29.2765 17.5745 29.0708 17.4556 28.8452 17.3948C28.6196 17.334 28.3819 17.3335 28.1561 17.3933ZM24.4601 23.128C23.472 24.1215 22.2968 24.9091 21.0023 25.4453C19.7079 25.9816 18.3199 26.2558 16.9188 26.252C15.5171 26.2555 14.1287 25.9811 12.8339 25.4446C11.539 24.9082 10.3633 24.1203 9.37475 23.1267C5.21742 18.968 5.21742 12.2 9.37475 8.04134C10.1781 7.2389 11.1055 6.57122 12.1214 6.06401C11.9727 7.98275 12.24 9.91098 12.9051 11.7169C13.5701 13.5229 14.6172 15.1639 15.9748 16.528C17.3358 17.8898 18.9764 18.9398 20.7831 19.6054C22.5898 20.2709 24.5195 20.5361 26.4388 20.3827C25.9288 21.3968 25.2609 22.3235 24.4601 23.128Z" fill="currentColor"/>
</g>
</svg>
