<svg width="33" height="32" viewBox="0 0 33 32" fill="none" xmlns="http://www.w3.org/2000/svg">
<g id="bx-sun.svg">
<path id="Vector" d="M9.82406 16C9.82406 19.6813 12.8187 22.676 16.5001 22.676C20.1814 22.676 23.1761 19.6813 23.1761 16C23.1761 12.3186 20.1814 9.32396 16.5001 9.32396C12.8187 9.32396 9.82406 12.3186 9.82406 16ZM16.5001 11.9906C18.7107 11.9906 20.5094 13.7893 20.5094 16C20.5094 18.2106 18.7107 20.0093 16.5001 20.0093C14.2894 20.0093 12.4907 18.2106 12.4907 16C12.4907 13.7893 14.2894 11.9906 16.5001 11.9906ZM15.1641 25.3333H17.8307V29.3333H15.1641V25.3333ZM15.1641 2.66663H17.8307V6.66663H15.1641V2.66663ZM3.16406 14.6666H7.16406V17.3333H3.16406V14.6666ZM25.8307 14.6666H29.8307V17.3333H25.8307V14.6666ZM6.1254 24.484L8.95206 21.6546L10.8387 23.54L8.01206 26.3693L6.1254 24.484ZM22.1534 8.45863L24.9827 5.62929L26.8681 7.51463L24.0387 10.344L22.1534 8.45863ZM8.95606 10.3453L6.12673 7.51596L8.0134 5.63063L10.8401 8.45996L8.95606 10.3453ZM26.8681 24.4853L24.9827 26.3706L22.1534 23.5413L24.0387 21.656L26.8681 24.4853Z" fill="#FAFAFA"/>
</g>
</svg>
